<?xml version="1.0" encoding="utf-8"?>
<!-- Generator: Adobe Illustrator 17.0.0, SVG Export Plug-In . SVG Version: 6.00 Build 0)  -->
<!DOCTYPE svg PUBLIC "-//W3C//DTD SVG 1.1//EN" "http://www.w3.org/Graphics/SVG/1.1/DTD/svg11.dtd">
<svg version="1.1" id="Layer_1" xmlns="http://www.w3.org/2000/svg" xmlns:xlink="http://www.w3.org/1999/xlink" x="0px" y="0px"
	 width="71px" height="87px" viewBox="0 0 71 87" enable-background="new 0 0 71 87" xml:space="preserve">
<g>
	<path fill="#EFCC3A" stroke="#000000" stroke-miterlimit="10" d="M48.87,231.805c0,0-4.931,1.733-5.464,7.463
		c-0.533,5.731-0.533,6.664-0.533,6.664s14.394,1.866,23.457-0.133c0,0,1.733-11.195-5.997-13.594
		C60.332,232.205,53.668,230.606,48.87,231.805z"/>
	<path fill="#EAD53C" stroke="#000000" stroke-miterlimit="10" d="M51.402,229.14c0,0-2.932,0.133-2.666,1.733
		c0.267,1.599,0.933,2.666,2.932,3.065c1.999,0.4,6.797,0.8,8.13-0.666c1.333-1.466,1.599-3.865-0.666-4.132H51.402z"/>
	<path fill="#EAD53C" stroke="#000000" stroke-miterlimit="10" d="M51.469,178.228c0,0-3.199-3.399-3.998-8.396
		c0,0,3.598-3.598,9.196,0C56.667,169.832,56.267,178.029,51.469,178.228z"/>
	<path fill="#EFCC3A" stroke="#000000" stroke-miterlimit="10" d="M42.873,183.426c0,0,4.998-6.397,8.196-7.197
		c3.199-0.8,7.197,0.4,14.194,6.197C65.263,182.427,49.47,184.026,42.873,183.426z"/>
	<path fill="#EFCC3A" stroke="#000000" stroke-miterlimit="10" d="M59.266,220.21c14.394,0,14.394-32.386,14.394-32.386
		c-3.598-3.598-14.394-3.598-14.394-3.598s-3.598,0-10.795,0s-14.394,3.598-14.394,3.598s3.598,32.386,14.394,32.386H59.266z"/>
	<path fill="#EAD53C" stroke="#000000" stroke-miterlimit="10" d="M34.077,194.022c0,0,16.993-6.197,39.783-0.4
		c0,0,0.6-0.4,1.399-1.999c0.8-1.599,1.799-6.597-0.8-7.797c-2.599-1.199-27.988-6.797-40.982,0.8
		C33.477,184.626,29.279,189.224,34.077,194.022z"/>
	<path fill="#EAD53C" stroke="#000000" stroke-miterlimit="10" d="M35.976,199.319c0,0,1.199,0.1,1.899,1.599
		c0.7,1.499-0.3,2.699-1.1,2.099S34.976,200.619,35.976,199.319z"/>
	<path fill="#EAD53C" stroke="#000000" stroke-miterlimit="10" d="M72.444,199.707c0,0-1.972,1.696-0.953,2.863
		c1.019,1.167,1.659,0.873,2.128-0.608C74.089,200.481,73.236,199.291,72.444,199.707z"/>
	<path fill="#EAD53C" stroke="#000000" stroke-miterlimit="10" d="M41.074,213.813c0,0-1,0.1-0.6,0.9
		c0.4,0.8,1.199,1.999,2.099,1.699C42.573,216.412,42.573,215.412,41.074,213.813z"/>
	<path fill="#EAD53C" stroke="#000000" stroke-miterlimit="10" d="M66.463,216.612c0,0,0-2.199,1.599-2.399c0,0,0.6,0.1,0.3,1.1
		C68.062,216.312,67.162,217.312,66.463,216.612z"/>
	<path fill="#EFCC3A" stroke="#000000" stroke-miterlimit="10" d="M35.476,199.919c0,0,2.099,0.7,1.299,3.099
		s-6.397,1.699-4.498,5.198c1.899,3.498,8.196,6.497,8.196,6.497s2.199,1.299,0.8,2.799c-1.399,1.499-4.598,0.1-3.898-1.799
		c0.7-1.899,0-1.399-2.399-2.799s-13.294-4.198-11.995-12.495S35.476,199.919,35.476,199.919z"/>
	<path fill="#EFCC3A" stroke="#000000" stroke-miterlimit="10" d="M73.26,200.019c0,0-1.599,1.399-0.8,3.299
		c0.8,1.899,5.298,2.699,2.899,5.598c-2.399,2.899-6.597,5.897-6.997,6.397s-1.599,2.699,0.1,3.199c1.699,0.5,3.498,0.2,3.598-1.699
		c0.1-1.899-1.899-1.499,0.4-2.899s11.995-5.897,11.795-11.695S78.857,196.321,73.26,200.019z"/>
	<path fill="#EAD53C" stroke="#000000" stroke-miterlimit="10" d="M46.971,219.911c0,0,5.897-2.799,15.393-0.3
		c0,0,1.799,2.999,0.1,3.898s-8.896,1.999-15.693,0.4C46.771,223.909,45.372,221.71,46.971,219.911z"/>
	<path fill="#EFCC3A" stroke="#000000" stroke-miterlimit="10" d="M51.136,224.742c0,0,2.932-1.599,7.863-0.133
		c0,0,0.533,3.732,0.133,4.531c-0.4,0.8-6.93,0.8-7.73,0C51.402,229.14,51.136,226.874,51.136,224.742z"/>
	<path opacity="0.5" fill="#FFFFFF" d="M68.462,195.688c0,0-5.864-2.799-8.929-1.599c-3.065,1.199-2.266,4.931-2.266,9.862
		s-2.666,11.328,0.933,11.995c3.598,0.666,6.531-1.466,7.463-5.064S69.794,196.887,68.462,195.688z"/>
	<path opacity="0.5" fill="#FFFFFF" d="M79.257,198.886c0,0-2.399,1.199-1.199,2.666s2.799,2.932,1.466,4.798
		c-1.333,1.866-1.599,3.865,0.4,1.733c1.999-2.132,3.465-5.064,2.799-7.064C82.056,199.02,80.856,198.087,79.257,198.886z"/>
	<path opacity="0.5" fill="#FFFFFF" d="M72.727,184.492c0,0,2.132,1.066,1.466,4.798c-0.666,3.732-3.465,1.866-5.064,1.733
		c-1.599-0.133-9.196-1.466-11.462-1.733c-2.266-0.267-1.466-3.065-1.599-5.064c-0.133-1.999,1.599-2.532,4.398-2.132
		S68.862,182.627,72.727,184.492z"/>
	<path opacity="0.5" fill="#FFFFFF" d="M60.732,223.009c0,0,0.133-1.333-2.666-1.599c-2.799-0.267-3.332-2.266-0.133-1.733
		c3.199,0.533,4.265,1.199,4.531,2.132C62.731,222.743,62.064,223.009,60.732,223.009z"/>
	<path opacity="0.5" fill="#FFFFFF" d="M56.6,225.408c0,0-1.199,0-1.199,0.533c0,0.533,0,0.933,0.133,1.866
		c0.133,0.933-0.4,1.066,1.066,0.933c1.466-0.133,2.399-0.533,2.132-1.999S57,224.875,56.6,225.408z"/>
	<path opacity="0.5" fill="#FFFFFF" d="M56.733,230.473c0,0-1.866,0-1.333,1.066s-0.533,2.266,0.4,2.266
		c0.933,0,3.465,0,4.531-1.599C61.398,230.606,59.132,229.007,56.733,230.473z"/>
	<path opacity="0.5" fill="#FFFFFF" d="M65.396,244.733c0,0,0.533-5.997-0.933-7.73s-2.666-4.132-3.732-2.932
		c-1.066,1.199-3.332,0.666-4.398,1.466s-0.133,1.599,0,2.932c0.133,1.333,0.666,5.864,0.666,5.864s-0.8,1.199,1.999,0.933
		C61.798,245,64.73,245.666,65.396,244.733z"/>
	<path opacity="0.5" fill="#FFFFFF" d="M29.412,198.886c0,0-3.065-1.599-3.199,0.8s0.933,6.264,2.666,7.33s0.933-2.932,2.132-3.199
		C32.211,203.551,33.01,199.153,29.412,198.886z"/>
	<path opacity="0.5" fill="#FFFFFF" d="M55.267,170.498c0,0-1.199-1.333-2.666-1.066c-1.466,0.267-0.666,3.465,0.133,4.398
		c0.8,0.933,1.999,0.666,1.999,0.666S56.467,171.698,55.267,170.498z"/>
	<path opacity="0.5" fill="#FFFFFF" d="M60.998,180.361c0,0-3.598-2.799-4.798-2.932c-1.199-0.133-2.266-0.533-0.666,1.599
		C55.534,179.028,57.666,180.627,60.998,180.361z"/>
	<polygon fill="#EFCC3A" stroke="#000000" stroke-miterlimit="10" points="55.067,197.22 51.669,196.421 47.871,202.018 
		50.669,204.217 52.269,203.018 52.269,209.815 49.87,210.415 49.47,214.413 60.265,214.013 60.065,210.015 57.267,209.615 	"/>
	<polygon opacity="0.5" fill="#FFFFFF" points="51.936,197.22 53.202,198.553 54.668,209.748 55.001,213.547 59.799,213.413 
		59.666,210.548 56.733,209.948 54.601,197.753 	"/>
</g>
<g>
	<path fill="#B2B3B3" stroke="#000000" stroke-miterlimit="10" d="M117.548,230.573c0,0-4.931,1.733-5.464,7.463
		c-0.533,5.731-0.533,6.664-0.533,6.664s14.394,1.866,23.457-0.133c0,0,1.733-11.195-5.997-13.594
		C129.01,230.972,122.346,229.373,117.548,230.573z"/>
	<path fill="#7F7F7F" stroke="#000000" stroke-miterlimit="10" d="M120.08,227.907c0,0-2.932,0.133-2.666,1.733
		c0.267,1.599,0.933,2.666,2.932,3.065c1.999,0.4,6.797,0.8,8.13-0.666c1.333-1.466,1.599-3.865-0.666-4.132H120.08z"/>
	<path fill="#7F7F7F" stroke="#000000" stroke-miterlimit="10" d="M120.147,176.996c0,0-3.199-3.399-3.998-8.396
		c0,0,3.598-3.598,9.196,0C125.345,168.599,124.945,176.796,120.147,176.996z"/>
	<path fill="#B2B3B3" stroke="#000000" stroke-miterlimit="10" d="M111.551,182.193c0,0,4.998-6.397,8.196-7.197
		c3.199-0.8,7.197,0.4,14.194,6.197C133.941,181.194,118.148,182.793,111.551,182.193z"/>
	<path fill="#B2B3B3" stroke="#000000" stroke-miterlimit="10" d="M127.944,218.978c14.394,0,14.394-32.386,14.394-32.386
		c-3.598-3.598-14.394-3.598-14.394-3.598s-3.598,0-10.795,0c-7.197,0-14.394,3.598-14.394,3.598s3.598,32.386,14.394,32.386
		H127.944z"/>
	<path fill="#7F7F7F" stroke="#000000" stroke-miterlimit="10" d="M102.754,192.789c0,0,16.993-6.197,39.783-0.4
		c0,0,0.6-0.4,1.399-1.999c0.8-1.599,1.799-6.597-0.8-7.797s-27.988-6.797-40.982,0.8
		C102.155,183.393,97.956,187.991,102.754,192.789z"/>
	<path fill="#7F7F7F" stroke="#000000" stroke-miterlimit="10" d="M104.654,198.087c0,0,1.199,0.1,1.899,1.599
		c0.7,1.499-0.3,2.699-1.1,2.099C104.654,201.185,103.654,199.386,104.654,198.087z"/>
	<path fill="#7F7F7F" stroke="#000000" stroke-miterlimit="10" d="M141.122,198.474c0,0-1.972,1.696-0.953,2.863
		s1.659,0.873,2.128-0.608C142.766,199.248,141.914,198.058,141.122,198.474z"/>
	<path fill="#7F7F7F" stroke="#000000" stroke-miterlimit="10" d="M109.751,212.58c0,0-1,0.1-0.6,0.9
		c0.4,0.8,1.199,1.999,2.099,1.699C111.251,215.179,111.251,214.18,109.751,212.58z"/>
	<path fill="#7F7F7F" stroke="#000000" stroke-miterlimit="10" d="M135.14,215.379c0,0,0-2.199,1.599-2.399c0,0,0.6,0.1,0.3,1.1
		C136.74,215.079,135.84,216.079,135.14,215.379z"/>
	<path fill="#B2B3B3" stroke="#000000" stroke-miterlimit="10" d="M104.154,198.686c0,0,2.099,0.7,1.299,3.099
		c-0.8,2.399-6.397,1.699-4.498,5.198c1.899,3.498,8.196,6.497,8.196,6.497s2.199,1.299,0.8,2.799
		c-1.399,1.499-4.598,0.1-3.898-1.799c0.7-1.899,0-1.399-2.399-2.799c-2.399-1.399-13.294-4.198-11.995-12.495
		C92.959,190.89,104.154,198.686,104.154,198.686z"/>
	<path fill="#B2B3B3" stroke="#000000" stroke-miterlimit="10" d="M141.938,198.786c0,0-1.599,1.399-0.8,3.299
		c0.8,1.899,5.298,2.699,2.899,5.598c-2.399,2.899-6.597,5.897-6.997,6.397c-0.4,0.5-1.599,2.699,0.1,3.199s3.499,0.2,3.598-1.699
		c0.1-1.899-1.899-1.499,0.4-2.899s11.995-5.897,11.795-11.695C152.733,195.188,147.535,195.088,141.938,198.786z"/>
	<path fill="#7F7F7F" stroke="#000000" stroke-miterlimit="10" d="M115.649,218.678c0,0,5.897-2.799,15.393-0.3
		c0,0,1.799,2.999,0.1,3.898c-1.699,0.9-8.896,1.999-15.693,0.4C115.449,222.676,114.05,220.477,115.649,218.678z"/>
	<path fill="#B2B3B3" stroke="#000000" stroke-miterlimit="10" d="M119.814,223.509c0,0,2.932-1.599,7.863-0.133
		c0,0,0.533,3.732,0.133,4.531c-0.4,0.8-6.93,0.8-7.73,0C120.08,227.907,119.814,225.641,119.814,223.509z"/>
	<path opacity="0.5" fill="#FFFFFF" d="M137.14,194.455c0,0-5.864-2.799-8.929-1.599c-3.065,1.199-2.266,4.931-2.266,9.862
		s-2.666,11.328,0.933,11.995c3.598,0.666,6.531-1.466,7.463-5.064C135.274,206.05,138.472,195.654,137.14,194.455z"/>
	<path opacity="0.5" fill="#FFFFFF" d="M147.935,197.653c0,0-2.399,1.199-1.199,2.666c1.199,1.466,2.799,2.932,1.466,4.798
		c-1.333,1.866-1.599,3.865,0.4,1.733c1.999-2.132,3.465-5.064,2.799-7.064C150.734,197.787,149.534,196.854,147.935,197.653z"/>
	<path opacity="0.5" fill="#FFFFFF" d="M141.404,183.26c0,0,2.132,1.066,1.466,4.798c-0.666,3.732-3.465,1.866-5.064,1.733
		c-1.599-0.133-9.196-1.466-11.462-1.733c-2.266-0.267-1.466-3.065-1.599-5.064c-0.133-1.999,1.599-2.532,4.398-2.132
		C131.942,181.261,137.539,181.394,141.404,183.26z"/>
	<path opacity="0.5" fill="#FFFFFF" d="M129.41,221.776c0,0,0.133-1.333-2.666-1.599s-3.332-2.266-0.133-1.733
		c3.199,0.533,4.265,1.199,4.531,2.132C131.409,221.51,130.742,221.776,129.41,221.776z"/>
	<path opacity="0.5" fill="#FFFFFF" d="M125.278,224.175c0,0-1.199,0-1.199,0.533c0,0.533,0,0.933,0.133,1.866
		c0.133,0.933-0.4,1.066,1.066,0.933c1.466-0.133,2.399-0.533,2.132-1.999C127.144,224.042,125.678,223.642,125.278,224.175z"/>
	<path opacity="0.5" fill="#FFFFFF" d="M125.411,229.24c0,0-1.866,0-1.333,1.066s-0.533,2.266,0.4,2.266s3.465,0,4.531-1.599
		C130.076,229.373,127.81,227.774,125.411,229.24z"/>
	<path opacity="0.5" fill="#FFFFFF" d="M134.074,243.5c0,0,0.533-5.997-0.933-7.73s-2.666-4.132-3.732-2.932
		c-1.066,1.199-3.332,0.666-4.398,1.466s-0.133,1.599,0,2.932s0.666,5.864,0.666,5.864s-0.8,1.199,1.999,0.933
		C130.476,243.767,133.408,244.433,134.074,243.5z"/>
	<path opacity="0.5" fill="#FFFFFF" d="M98.09,197.653c0,0-3.065-1.599-3.199,0.8s0.933,6.264,2.666,7.33s0.933-2.932,2.132-3.199
		C100.889,202.318,101.688,197.92,98.09,197.653z"/>
	<path opacity="0.5" fill="#FFFFFF" d="M123.945,169.266c0,0-1.199-1.333-2.666-1.066c-1.466,0.267-0.666,3.465,0.133,4.398
		c0.8,0.933,1.999,0.666,1.999,0.666S125.145,170.465,123.945,169.266z"/>
	<path opacity="0.5" fill="#FFFFFF" d="M129.676,179.128c0,0-3.598-2.799-4.798-2.932s-2.266-0.533-0.666,1.599
		C124.212,177.795,126.344,179.395,129.676,179.128z"/>
	<path fill="#7F7F7F" stroke="#000000" stroke-miterlimit="10" d="M118.747,197.787l1.999,4.398c0,0,5.398-4.398,5.598-1.999
		c0.2,2.399-6.797,7.397-6.597,10.795l12.794,1l0.2-5.798l-6.197,0.8c0,0,5.798-8.596,2.199-9.996
		C125.145,195.588,118.747,197.787,118.747,197.787z"/>
	<path opacity="0.5" fill="#FFFFFF" d="M132.008,206.983l-6.797,0.733c0,0,3.465-4.665,3.665-6.331
		c0.2-1.666,1.799-4.731-3.132-4.465c0,0-1.133,0.933,0.2,1c1.333,0.067,2.132,0.666,1.799,2.066
		c-0.333,1.399-4.931,8.73-4.931,8.73l8.996,1.866L132.008,206.983z"/>
</g>
<g>
	<path fill="#997D44" stroke="#000000" stroke-miterlimit="10" d="M183.12,230.573c0,0-4.931,1.733-5.464,7.463
		c-0.533,5.731-0.533,6.664-0.533,6.664s14.394,1.866,23.457-0.133c0,0,1.733-11.195-5.997-13.594
		C194.582,230.972,187.918,229.373,183.12,230.573z"/>
	<path fill="#BAA632" stroke="#000000" stroke-miterlimit="10" d="M185.652,227.907c0,0-2.932,0.133-2.666,1.733
		c0.267,1.599,0.933,2.666,2.932,3.065c1.999,0.4,6.797,0.8,8.13-0.666c1.333-1.466,1.599-3.865-0.666-4.132H185.652z"/>
	<path fill="#BAA632" stroke="#000000" stroke-miterlimit="10" d="M185.719,176.996c0,0-3.199-3.399-3.998-8.396
		c0,0,3.598-3.598,9.196,0C190.916,168.599,190.517,176.796,185.719,176.996z"/>
	<path fill="#997D44" stroke="#000000" stroke-miterlimit="10" d="M177.122,182.193c0,0,4.998-6.397,8.196-7.197
		c3.199-0.8,7.197,0.4,14.194,6.197C199.513,181.194,183.72,182.793,177.122,182.193z"/>
	<path fill="#997D44" stroke="#000000" stroke-miterlimit="10" d="M193.515,218.978c14.394,0,14.394-32.386,14.394-32.386
		c-3.598-3.598-14.394-3.598-14.394-3.598s-3.598,0-10.795,0c-7.197,0-14.394,3.598-14.394,3.598s3.598,32.386,14.394,32.386
		H193.515z"/>
	<path fill="#BAA632" stroke="#000000" stroke-miterlimit="10" d="M168.326,192.789c0,0,16.993-6.197,39.783-0.4
		c0,0,0.6-0.4,1.399-1.999c0.8-1.599,1.799-6.597-0.8-7.797s-27.988-6.797-40.982,0.8
		C167.726,183.393,163.528,187.991,168.326,192.789z"/>
	<path fill="#BAA632" stroke="#000000" stroke-miterlimit="10" d="M170.225,198.087c0,0,1.199,0.1,1.899,1.599
		c0.7,1.499-0.3,2.699-1.1,2.099C170.225,201.185,169.226,199.386,170.225,198.087z"/>
	<path fill="#BAA632" stroke="#000000" stroke-miterlimit="10" d="M206.694,198.474c0,0-1.972,1.696-0.953,2.863
		s1.659,0.873,2.128-0.608C208.338,199.248,207.486,198.058,206.694,198.474z"/>
	<path fill="#BAA632" stroke="#000000" stroke-miterlimit="10" d="M175.323,212.58c0,0-1,0.1-0.6,0.9
		c0.4,0.8,1.199,1.999,2.099,1.699C176.823,215.179,176.823,214.18,175.323,212.58z"/>
	<path fill="#BAA632" stroke="#000000" stroke-miterlimit="10" d="M200.712,215.379c0,0,0-2.199,1.599-2.399c0,0,0.6,0.1,0.3,1.1
		C202.312,215.079,201.412,216.079,200.712,215.379z"/>
	<path fill="#997D44" stroke="#000000" stroke-miterlimit="10" d="M169.726,198.686c0,0,2.099,0.7,1.299,3.099
		c-0.8,2.399-6.397,1.699-4.498,5.198c1.899,3.498,8.196,6.497,8.196,6.497s2.199,1.299,0.8,2.799
		c-1.399,1.499-4.598,0.1-3.898-1.799c0.7-1.899,0-1.399-2.399-2.799s-13.294-4.198-11.995-12.495
		C158.53,190.89,169.726,198.686,169.726,198.686z"/>
	<path fill="#997D44" stroke="#000000" stroke-miterlimit="10" d="M207.509,198.786c0,0-1.599,1.399-0.8,3.299
		c0.8,1.899,5.298,2.699,2.899,5.598c-2.399,2.899-6.597,5.897-6.997,6.397c-0.4,0.5-1.599,2.699,0.1,3.199s3.499,0.2,3.598-1.699
		c0.1-1.899-1.899-1.499,0.4-2.899s11.995-5.897,11.795-11.695C218.305,195.188,213.107,195.088,207.509,198.786z"/>
	<path fill="#BAA632" stroke="#000000" stroke-miterlimit="10" d="M181.221,218.678c0,0,5.897-2.799,15.393-0.3
		c0,0,1.799,2.999,0.1,3.898c-1.699,0.9-8.896,1.999-15.693,0.4C181.021,222.676,179.621,220.477,181.221,218.678z"/>
	<path fill="#997D44" stroke="#000000" stroke-miterlimit="10" d="M185.385,223.509c0,0,2.932-1.599,7.863-0.133
		c0,0,0.533,3.732,0.133,4.531s-6.93,0.8-7.73,0C185.652,227.907,185.385,225.641,185.385,223.509z"/>
	<path opacity="0.5" fill="#FFFFFF" d="M202.711,194.455c0,0-5.864-2.799-8.929-1.599s-2.266,4.931-2.266,9.862
		s-2.666,11.328,0.933,11.995c3.598,0.666,6.531-1.466,7.463-5.064C200.846,206.05,204.044,195.654,202.711,194.455z"/>
	<path opacity="0.5" fill="#FFFFFF" d="M213.507,197.653c0,0-2.399,1.199-1.199,2.666c1.199,1.466,2.799,2.932,1.466,4.798
		c-1.333,1.866-1.599,3.865,0.4,1.733c1.999-2.132,3.465-5.064,2.799-7.064C216.306,197.787,215.106,196.854,213.507,197.653z"/>
	<path opacity="0.5" fill="#FFFFFF" d="M206.976,183.26c0,0,2.132,1.066,1.466,4.798c-0.666,3.732-3.465,1.866-5.064,1.733
		c-1.599-0.133-9.196-1.466-11.462-1.733c-2.266-0.267-1.466-3.065-1.599-5.064c-0.133-1.999,1.599-2.532,4.398-2.132
		S203.111,181.394,206.976,183.26z"/>
	<path opacity="0.5" fill="#FFFFFF" d="M194.981,221.776c0,0,0.133-1.333-2.666-1.599s-3.332-2.266-0.133-1.733
		c3.199,0.533,4.265,1.199,4.531,2.132C196.98,221.51,196.314,221.776,194.981,221.776z"/>
	<path opacity="0.5" fill="#FFFFFF" d="M190.85,224.175c0,0-1.199,0-1.199,0.533c0,0.533,0,0.933,0.133,1.866
		c0.133,0.933-0.4,1.066,1.066,0.933c1.466-0.133,2.399-0.533,2.132-1.999C192.716,224.042,191.25,223.642,190.85,224.175z"/>
	<path opacity="0.5" fill="#FFFFFF" d="M190.983,229.24c0,0-1.866,0-1.333,1.066c0.533,1.066-0.533,2.266,0.4,2.266
		c0.933,0,3.465,0,4.531-1.599C195.648,229.373,193.382,227.774,190.983,229.24z"/>
	<path opacity="0.5" fill="#FFFFFF" d="M199.646,243.5c0,0,0.533-5.997-0.933-7.73s-2.666-4.132-3.732-2.932
		c-1.066,1.199-3.332,0.666-4.398,1.466s-0.133,1.599,0,2.932s0.666,5.864,0.666,5.864s-0.8,1.199,1.999,0.933
		C196.048,243.767,198.98,244.433,199.646,243.5z"/>
	<path opacity="0.5" fill="#FFFFFF" d="M163.661,197.653c0,0-3.065-1.599-3.199,0.8s0.933,6.264,2.666,7.33
		c1.733,1.066,0.933-2.932,2.132-3.199C166.46,202.318,167.26,197.92,163.661,197.653z"/>
	<path opacity="0.5" fill="#FFFFFF" d="M189.517,169.266c0,0-1.199-1.333-2.666-1.066c-1.466,0.267-0.666,3.465,0.133,4.398
		c0.8,0.933,1.999,0.666,1.999,0.666S190.717,170.465,189.517,169.266z"/>
	<path opacity="0.5" fill="#FFFFFF" d="M195.248,179.128c0,0-3.598-2.799-4.798-2.932c-1.199-0.133-2.266-0.533-0.666,1.599
		C189.784,177.795,191.916,179.395,195.248,179.128z"/>
	<path fill="#BAA632" stroke="#000000" stroke-miterlimit="10" d="M183.72,197.787l1.799,3.998c0,0,6.997-3.798,5.798-1.599
		c-1.199,2.199-2.999,3.998-2.999,3.998s6.397,0.6,4.998,2.399s-6.997,3.199-6.997,3.199v4.398c0,0,9.596,1.399,10.795-4.198
		c1.199-5.598-2.399-7.397-2.399-7.397S197.514,193.988,183.72,197.787z"/>
	<path opacity="0.5" fill="#FFFFFF" d="M192.449,213.18c0,0,8.263-4.398,1.933-10.329c0,0-0.133,0.067-0.133-0.666
		s0.866-4.931-4.132-4.931c0,0-1,1.066-0.133,1.266c0.866,0.2,3.065,0.4,2.199,2.066c-0.866,1.666-1.599,2.599-1.599,2.599
		s3.665,0.333,4.531,2.466c0.866,2.132-2.532,4.465-3.465,5.264S191.383,213.18,192.449,213.18z"/>
</g>
<g>
	<path fill="#4A60AC" stroke="#000000" stroke-miterlimit="10" d="M23.833,40.167c0,0-8.333,25.833-8,35.667l5.833-4.667l6,7
		c0,0,1-30.667,3.5-37.167l6.5,0.167L46.167,78l3.333-9.333l9,2.167c0,0-7-26.667-16.667-31.333S27,35.667,23.833,40.167z"/>
	<circle fill="#4A60AC" stroke="#000000" stroke-miterlimit="10" cx="34" cy="30" r="15.667"/>
	<circle fill="#E2D771" stroke="#000000" stroke-miterlimit="10" cx="34.333" cy="30.167" r="11.667"/>
	<path fill="#565656" stroke="#000000" stroke-miterlimit="10" d="M31.667,37.167l-2-10.667c0,0,13.833-5.5,9.667,2.833
		l-4.167,2.333L36,36.833L31.667,37.167z M33.167,27.833L34,30c0,0,4.167-2,2.833-2.5C35.5,27,33.167,27.833,33.167,27.833z"/>
	<path fill="#617ABC" d="M55.833,67.333c0,0-3.833-16.167-11.333-23.667l-2.167,1.667L48.667,66.5L55.833,67.333z"/>
	<path fill="#617ABC" d="M28.667,46.5l-2.5-0.833l-3.333,22.667c0,0,1.833,3.833,3.5,5.333C26.333,73.667,27.167,52.5,28.667,46.5z"
		/>
	<path fill="#617ABC" d="M35,15.833c0,0,0.833,1.667,3,1.833c2.167,0.167,12.167,6,9.167,18.167C47.167,35.833,53,18.333,35,15.833z
		"/>
</g>
</svg>
